Coordinates
version=1
nRows=6
nColumns=36
inDegrees=yes

Units are S.I. units (second, meters, Newtons, ...)
If the header above contains a line with 'inDegrees', this indicates whether rotational values are in degrees (yes) or radians (no).

endheader
time	pelvis_tilt	pelvis_list	pelvis_rotation	pelvis_tx	pelvis_ty	pelvis_tz	hip_flexion_r	hip_adduction_r	hip_rotation_r	knee_angle_r	knee_angle_r_beta	ankle_angle_r	subtalar_angle_r	mtp_angle_r	hip_flexion_l	hip_adduction_l	hip_rotation_l	knee_angle_l	knee_angle_l_beta	ankle_angle_l	subtalar_angle_l	mtp_angle_l	lumbar_extension	lumbar_bending	lumbar_rotation	arm_flex_r	arm_add_r	arm_rot_r	elbow_flex_r	pro_sup_r	arm_flex_l	arm_add_l	arm_rot_l	elbow_flex_l	pro_sup_l
      0.00000000	     -3.37876418	     -3.34417020	      2.14285535	     -0.06785113	      0.89456182	     -0.25798040	     24.92264356	      4.86422938	     -7.68334660	      1.61059593	      0.02811020	      3.93271949	     -3.08128096	     -5.71830507	    -18.43212236	      0.82384119	     -0.86079247	     11.29770213	      0.19718210	     12.13326603	      3.65841063	     -5.71830507	     -6.23361330	     13.75503027	    -12.63948257	    -12.98917126	     -8.43495550	    -18.99597305	     34.17285272	     96.27882743	      0.39886507	     -6.68690938	      0.09081212	     43.57273075	     94.99873666
      0.01000000	     -3.51369826	     -4.32252374	      1.74512437	     -0.05598004	      0.89457499	     -0.25884283	     24.75114199	      5.89685643	     -7.93367030	      2.11269134	      0.03687342	      2.76332666	     -3.41970558	     -5.73697770	    -18.45757876	     -0.06841284	     -1.38738417	     12.32631522	      0.21513479	     11.04080853	      3.21808969	     -5.73697770	     -6.34917878	     15.70935814	    -12.32132565	    -12.66788127	     -9.15069081	    -19.21565440	     34.03354276	     96.43341532	     -0.00494376	     -5.98110877	      0.52131751	     43.31019790	     95.21411740
      0.02000000	     -3.59293495	     -5.20217543	      1.33011900	     -0.04427252	      0.89479118	     -0.25954854	     24.50653163	      6.84936378	     -8.02694427	      2.59564926	      0.04530263	      1.07090450	     -4.08535646	     -5.76408882	    -18.49925229	     -0.86055501	     -1.85154542	     13.42824849	      0.23436715	      9.76324691	      2.73287888	     -5.76408882	     -6.60640767	     17.52177792	    -11.88113405	    -12.34755870	     -9.71770440	    -19.64641382	     33.94445972	     96.62380623	     -0.25140078	     -5.33563585	      1.09292926	     42.85258185	     95.51892914
      0.03000000	     -3.77197199	     -6.00344315	      0.81060247	     -0.03274715	      0.89509118	     -0.25999969	     24.17785908	      7.84165639	     -7.00828963	      2.72056771	      0.04748286	     -1.67237171	     -6.80259745	     -5.88000391	    -18.46105884	     -1.51078570	     -2.08537329	     14.45688677	      0.25232027	      8.29051443	      1.83513253	     -5.88000391	     -6.80063873	     19.25833211	    -10.95516079	    -12.33009001	    -10.04163487	    -21.18306971	     34.30424512	     97.40393142	     -0.15517067	     -4.81919397	      2.59711480	     41.83206567	     96.78351355
      0.04000000	     -3.91267551	     -6.77564649	      0.34107168	     -0.02111910	      0.89563669	     -0.26040936	     23.96619256	      8.69235021	     -7.05359839	      3.30643884	      0.05770824	     -2.53192225	     -6.71858750	     -5.90072922	    -18.32328741	     -2.21252607	     -2.56585444	     15.73603497	      0.27464562	      6.94930437	      1.54028812	     -5.90072922	     -7.03450321	     20.88769544	    -10.50550942	    -11.89992327	    -10.58305261	    -21.47230572	     34.29729611	     97.51680827	     -0.56558492	     -4.21159329	      2.86507241	     41.72218508	     96.99093041
      0.05000000	     -4.09758389	     -7.45340311	     -0.14428463	     -0.00961008	      0.89638774	     -0.26060736	     23.72267022	      9.47739710	     -6.85018853	      3.79729730	      0.06627534	     -3.39020953	     -6.79577015	     -5.92136758	    -18.05930496	     -2.82718639	     -2.94036726	     17.11482852	      0.29871011	      5.46978280	      1.14725393	     -5.92136758	     -7.23304657	     22.37195888	    -10.02100989	    -11.47232998	    -11.03822669	    -21.77578201	     34.36501191	     97.62981263	     -0.98424517	     -3.67609902	      3.16622801	     41.61753000	     97.20939036
